<?xml version="1.0" encoding="UTF-8"?>
<svg width="1024" height="1024" viewBox="0 0 1024 1024" xmlns="http://www.w3.org/2000/svg">
  <!-- Background gradient -->
  <defs>
    <linearGradient id="bgGrad" x1="0%" y1="0%" x2="100%" y2="100%">
      <stop offset="0%" style="stop-color:#667eea;stop-opacity:1" />
      <stop offset="100%" style="stop-color:#764ba2;stop-opacity:1" />
    </linearGradient>
    <linearGradient id="iconGrad" x1="0%" y1="0%" x2="100%" y2="100%">
      <stop offset="0%" style="stop-color:#fbbf24;stop-opacity:1" />
      <stop offset="100%" style="stop-color:#f59e0b;stop-opacity:1" />
    </linearGradient>
  </defs>

  <!-- Background circle -->
  <circle cx="512" cy="512" r="480" fill="url(#bgGrad)"/>

  <!-- Code editor icon -->
  <g transform="translate(512, 512)">
    <!-- Bracket symbols representing code -->
    <path d="M -200,-200 L -150,-200 L -150,-150 M -200,200 L -150,200 L -150,150"
          stroke="url(#iconGrad)" stroke-width="40" fill="none" stroke-linecap="round"/>
    <path d="M 200,-200 L 150,-200 L 150,-150 M 200,200 L 150,200 L 150,150"
          stroke="url(#iconGrad)" stroke-width="40" fill="none" stroke-linecap="round"/>

    <!-- AI brain symbol in center -->
    <circle cx="0" cy="-80" r="30" fill="url(#iconGrad)"/>
    <circle cx="-60" cy="0" r="30" fill="url(#iconGrad)"/>
    <circle cx="60" cy="0" r="30" fill="url(#iconGrad)"/>
    <circle cx="0" cy="80" r="30" fill="url(#iconGrad)"/>

    <!-- Connection lines -->
    <line x1="0" y1="-50" x2="-42" y2="-21" stroke="url(#iconGrad)" stroke-width="8"/>
    <line x1="0" y1="-50" x2="42" y2="-21" stroke="url(#iconGrad)" stroke-width="8"/>
    <line x1="-42" y1="21" x2="0" y2="50" stroke="url(#iconGrad)" stroke-width="8"/>
    <line x1="42" y1="21" x2="0" y2="50" stroke="url(#iconGrad)" stroke-width="8"/>
    <line x1="-42" y1="-21" x2="-42" y2="21" stroke="url(#iconGrad)" stroke-width="8"/>
    <line x1="42" y1="-21" x2="42" y2="21" stroke="url(#iconGrad)" stroke-width="8"/>
  </g>
</svg>